<?xml version="1.0" encoding="utf-8"?>
<!-- Generator: Adobe Illustrator 22.0.1, SVG Export Plug-In . SVG Version: 6.00 Build 0)  -->
<svg version="1.1" id="Layer_1" xmlns="http://www.w3.org/2000/svg" xmlns:xlink="http://www.w3.org/1999/xlink" x="0px" y="0px"
	 viewBox="0 0 481.1 91.2" style="enable-background:new 0 0 481.1 91.2;" xml:space="preserve">
<style type="text/css">
	.st0{fill:#1F0000;}
	.st1{fill:#FFFFFF;}
	.st2{fill:#640000;}
</style>
<g>
	<path class="st0" d="M197.5,2.3h-77c0,0-13.9,3.6-26.2,18.4c-4.8,5.9-8.3,9-10.8,10.7H20.1c-0.7-2-2.6-3.4-4.8-3.4H7.5
		c-2.2,0-4.1,1.4-4.8,3.4H0v29.3h2.7c0.7,2,2.6,3.4,4.8,3.4h7.8c2.2,0,4.1-1.4,4.8-3.4h61.3c4.5,0,11.3,11.7,11.3,11.7
		c14.2,20,30.4,18.7,30.4,18.7H221L197.5,2.3z"/>
	<g>
		<path class="st1" d="M201.1,11h-28.1l-6.5,12.1c5.4,0,10.5,0.9,15.3,2.6c4.8,1.7,9.1,4.1,12.7,7.3c3.6,3.1,6.5,6.8,8.7,11.1
			c2.1,4.3,3.2,8.9,3.2,13.9c0,4.6-0.9,8.9-2.9,12.9c-2,4.1-4.7,7.6-8.2,10.6s-7.6,5.4-12.3,7.1c-4.7,1.7-9.8,2.6-15.1,2.6
			c-2.5,0-4.7-0.2-6.7-0.7c-2-0.5-3.7-1.1-5.1-1.9s-2.5-1.8-3.3-2.8c-0.8-1.1-1.2-2.2-1.2-3.4c0-1.6,0.6-2.8,1.8-3.6
			c1.2-0.8,2.6-1.2,4.2-1.2c1.7,0,3.2,0.3,4.5,1c1.2,0.7,2.5,1.4,3.7,2.2c1.3,0.8,2.7,1.6,4.3,2.2c1.6,0.7,3.6,1,6.1,1
			c2.8,0,5.5-0.6,8-1.7c2.5-1.2,4.7-2.7,6.6-4.7c1.9-2,3.3-4.3,4.4-7c1.1-2.7,1.6-5.5,1.6-8.6c0-4.1-1-7.9-3-11.2
			c-2-3.3-4.9-6.2-8.6-8.6c-3.7-2.4-8.3-4.2-13.6-5.5c-5.3-1.3-11.2-2-17.7-2L172.4,0h34.2L201.1,11z"/>
	</g>
	<g>
		<g>
			<path class="st2" d="M264.4,17.2L242,90.5h-8.2L211.9,3.6h8.2l18.1,75l22.2-75h7.3l22.6,74.3l17.6-74.3h8.2l-21.9,86.9h-8.1
				L264.4,17.2z"/>
			<path class="st2" d="M333.4,3.6v86.9h-8V3.6H333.4z"/>
			<path class="st2" d="M357.6,3.6l45.5,76.2V3.6h7.8v86.9h-11.2l-45.5-76.7v76.7h-7.8V3.6H357.6z"/>
			<path class="st2" d="M478.5,3.6v8.5h-48.8v29.3h45.9v8.4h-45.9v32.4h50.9v8.4h-58.7V3.6H478.5z"/>
		</g>
	</g>
</g>
</svg>
