<?xml version="1.0" encoding="utf-8"?>
<!-- Generator: Adobe Illustrator 22.0.1, SVG Export Plug-In . SVG Version: 6.00 Build 0)  -->
<svg version="1.1" id="Layer_1" xmlns="http://www.w3.org/2000/svg" xmlns:xlink="http://www.w3.org/1999/xlink" x="0px" y="0px"
	 viewBox="0 0 506.3 78.4" style="enable-background:new 0 0 506.3 78.4;" xml:space="preserve">
<style type="text/css">
	.st0{fill:#B0D361;}
	.st1{fill:#FFFFFF;}
	.st2{fill:#036A37;}
</style>
<g>
	<path class="st0" d="M61.6,77.7c-3.9-2-7.4-4.5-10.3-7.7c-3.6-3.8-6.5-8.3-8.5-13.6c-1.9-5-2.9-10.5-3-16.4c0-0.3,0-0.5,0-0.8
		c0-6.2,1-12,3.1-17.2c2.1-5.2,4.9-9.8,8.6-13.6c2.9-3.1,6.3-5.6,10.2-7.6V0.5C24,0.5,0,39.2,0,39.2S24,78,61.6,78V77.7z"/>
</g>
<g>
	<path class="st0" d="M500.5,69.8c-1.4-1.8-2.7-3.8-3.8-5.9c-1.2-2.4-2.3-5-3-7.8c-1.5-5.3-2.2-10.1-2.2-16.1c0-1,0.1-0.3,0.1-2.1
		c-0.1-1.7-0.1-1.1-0.1-2.1c0-6,0.7-10.8,2.2-16.1c0.8-2.8,1.8-5.4,3-7.8c1.1-2.1,2.3-4.1,3.8-5.9c1.7-2.1,3.6-4.4,5.8-6
		c-3.5,0.8-6,1-6,1c-28.5,6.2-52.2,33.7-54.9,36.8c2.7,3.2,26.4,30.6,54.9,36.8c0,0,2.5,0.3,6,1C504.1,74.1,502.1,71.9,500.5,69.8z"
		/>
</g>
<g>
	<line class="st0" x1="213.8" y1="37.9" x2="267.5" y2="37.9"/>
	<rect x="213.8" y="34.6" class="st0" width="53.7" height="6.5"/>
</g>
<g>
	<line class="st0" x1="122.4" y1="38" x2="187.6" y2="38"/>
	<rect x="122.4" y="34.9" class="st0" width="65.2" height="6.3"/>
</g>
<g>
	<line class="st0" x1="337.2" y1="38.1" x2="448" y2="38.1"/>
	<rect x="337.2" y="34.9" class="st0" width="110.9" height="6.5"/>
</g>
<g>
	<path class="st0" d="M9.4,37.9"/>
</g>
<g>
	<circle class="st1" cx="26" cy="37.9" r="8.5"/>
</g>
<g>
	<path class="st2" d="M110.3,62.8c-1.2,1.8-2.6,3.4-4.3,5c-1.7,1.6-3.6,2.9-5.8,4.1c-2.2,1.2-4.6,2.1-7.2,2.8c-2.6,0.7-5.5,1-8.7,1
		c-5.2,0-10-0.9-14.5-2.7c-4.4-1.8-8.3-4.4-11.4-7.6c-3.2-3.2-5.7-7.1-7.5-11.5c-1.8-4.4-2.7-9.3-2.7-14.6c0-5.3,0.9-10.1,2.7-14.6
		c1.8-4.4,4.4-8.3,7.6-11.5c3.2-3.2,7-5.8,11.4-7.6c4.4-1.8,9.2-2.7,14.3-2.7c2.5,0,5,0.3,7.5,0.8c2.4,0.5,4.7,1.3,6.9,2.2
		c2.2,1,4.1,2.1,5.9,3.5c1.8,1.3,3.2,2.9,4.4,4.6l-5.9,4.3c-0.7-1.1-1.7-2.2-2.9-3.3C99.1,14,97.6,13,96,12.2
		c-1.6-0.8-3.4-1.5-5.3-2.1c-1.9-0.5-4-0.8-6.2-0.8c-4.5,0-8.5,0.8-12.1,2.4c-3.6,1.6-6.6,3.8-9.1,6.6c-2.5,2.8-4.4,6-5.7,9.6
		c-1.3,3.6-2,7.5-2,11.5c0,4,0.7,7.9,2,11.5c1.3,3.6,3.2,6.8,5.7,9.6c2.5,2.8,5.5,5,9.1,6.6c3.6,1.6,7.5,2.4,12,2.4
		c4,0,7.8-0.8,11.4-2.4c3.6-1.6,6.6-4.2,9-7.8L110.3,62.8z"/>
	<path class="st2" d="M129.5,67.8h37.1v6.3h-44.1V4.8h43v6.3h-35.9v23.8H163v6.3h-33.6V67.8z"/>
	<path class="st2" d="M201.6,65h0.2l22.5-60.2h7.5l-26.5,69.3h-7.4L171.5,4.8h7.6L201.6,65z"/>
	<path class="st2" d="M248.4,74.1h-7V4.8h7V74.1z"/>
	<path class="st2" d="M325.1,62.8c-1.2,1.8-2.6,3.4-4.3,5c-1.7,1.6-3.6,2.9-5.8,4.1c-2.2,1.2-4.6,2.1-7.2,2.8c-2.6,0.7-5.5,1-8.7,1
		c-5.2,0-10-0.9-14.5-2.7c-4.4-1.8-8.3-4.4-11.4-7.6c-3.2-3.2-5.7-7.1-7.5-11.5c-1.8-4.4-2.7-9.3-2.7-14.6c0-5.3,0.9-10.1,2.7-14.6
		c1.8-4.4,4.4-8.3,7.6-11.5c3.2-3.2,7-5.8,11.4-7.6c4.4-1.8,9.2-2.7,14.3-2.7c2.5,0,5,0.3,7.5,0.8c2.4,0.5,4.7,1.3,6.9,2.2
		c2.2,1,4.1,2.1,5.9,3.5c1.8,1.3,3.2,2.9,4.4,4.6l-5.9,4.3c-0.7-1.1-1.7-2.2-2.9-3.3c-1.2-1.1-2.6-2.1-4.3-2.9
		c-1.6-0.8-3.4-1.5-5.3-2.1c-1.9-0.5-4-0.8-6.2-0.8c-4.5,0-8.5,0.8-12.1,2.4c-3.6,1.6-6.6,3.8-9.1,6.6c-2.5,2.8-4.4,6-5.7,9.6
		c-1.3,3.6-2,7.5-2,11.5c0,4,0.7,7.9,2,11.5c1.3,3.6,3.2,6.8,5.7,9.6c2.5,2.8,5.5,5,9.1,6.6c3.6,1.6,7.5,2.4,12,2.4
		c4,0,7.8-0.8,11.4-2.4c3.6-1.6,6.6-4.2,9-7.8L325.1,62.8z"/>
	<path class="st2" d="M337.2,4.8h7v30H382v-30h7v69.3h-7V41.3h-37.8v32.8h-7V4.8z"/>
	<path class="st2" d="M414.5,67.8h37.1v6.3h-44.1V4.8h43v6.3h-35.9v23.8H448v6.3h-33.6V67.8z"/>
</g>
</svg>
