<?xml version="1.0" encoding="utf-8"?>
<!-- Generator: Adobe Illustrator 22.0.1, SVG Export Plug-In . SVG Version: 6.00 Build 0)  -->
<svg version="1.1" id="Layer_1" xmlns="http://www.w3.org/2000/svg" xmlns:xlink="http://www.w3.org/1999/xlink" x="0px" y="0px"
	 viewBox="0 0 433.5 177.8" style="enable-background:new 0 0 433.5 177.8;" xml:space="preserve">
<style type="text/css">
	.st0{fill:#F3C133;}
	.st1{fill-rule:evenodd;clip-rule:evenodd;fill:#E5E8E7;}
	.st2{fill:#FECA35;}
	.st3{fill:#E2B42F;}
</style>
<g>
	<g>
		<path d="M10,125.3c0,7.1,0.9,13.3,2.8,18.6c1.8,5.2,4.3,9.6,7.3,13.1c3,3.5,6.4,6,10.2,7.7c3.8,1.7,7.7,2.5,11.6,2.5
			c4.1,0,7.7-0.7,11-2.2c3.3-1.5,6.2-3.4,8.6-5.8c2.4-2.4,4.4-5.2,6-8.3c1.6-3.1,2.7-6.3,3.3-9.5h10.1c-0.9,4.8-2.5,9.3-4.6,13.5
			c-2.1,4.2-4.8,7.9-8.1,11c-3.3,3.1-7.2,5.6-11.6,7.4c-4.4,1.8-9.4,2.7-14.9,2.7c-6.4,0-12.1-1.2-17.3-3.5s-9.6-5.6-13.2-10
			c-3.6-4.4-6.4-9.7-8.4-15.9c-2-6.3-3-13.4-3-21.3c0-6.1,0.9-12.1,2.8-17.9C4.7,101.6,7.4,96.5,11,92c3.6-4.5,7.9-8.1,13.1-10.7
			c5.2-2.7,11-4,17.6-4c5.5,0,10.5,0.7,14.9,2.2c4.4,1.5,8.2,3.5,11.4,6.1c3.2,2.6,6,5.8,8.2,9.3c2.2,3.6,3.9,7.5,5.1,11.8H70.7
			c-2.5-7-6.1-12.2-10.7-15.6C55.2,87.7,49.1,86,41.7,86c-4.7,0-8.9,1.1-12.8,3.2c-3.9,2.1-7.2,5-10,8.6c-2.8,3.6-5,7.8-6.5,12.6
			C10.7,115.1,10,120.1,10,125.3z"/>
		<path d="M161.5,106.5c0,4.7-1.1,9-3.3,13.1c-2.2,4.1-5.5,7.3-9.8,9.8c2.4,0.6,4.4,1.5,5.9,2.8c1.5,1.3,2.7,2.7,3.6,4.4
			c0.9,1.7,1.5,3.5,1.8,5.5c0.3,2,0.5,4,0.5,6v14.2c0,2,0.3,4,0.8,5.8c0.5,1.9,1.3,3.6,2.1,5.2h-10.8c-0.4-0.7-0.8-1.5-1-2.4
			c-0.2-0.9-0.4-1.9-0.6-2.8c-0.1-1-0.2-1.9-0.3-2.8c-0.1-0.9-0.1-1.7-0.1-2.4v-14.8c0-1.8-0.3-3.6-0.9-5.3c-0.6-1.7-1.6-3.3-3-4.7
			c-1.4-1.4-3.1-2.5-5.3-3.4c-2.2-0.9-4.8-1.3-7.9-1.3h-28.2v40h-10V79.9h38.2c4.6,0,8.6,0.8,12.1,2.4c3.5,1.6,6.4,3.7,8.8,6.2
			c2.4,2.5,4.2,5.4,5.4,8.5C160.9,100.1,161.5,103.3,161.5,106.5z M105.1,124.4h28.2c2.5,0,4.8-0.5,7-1.4c2.2-0.9,4.1-2.2,5.8-3.9
			c1.6-1.6,3-3.6,4-5.8c1-2.2,1.5-4.6,1.5-7.1c0-2.5-0.5-4.8-1.4-6.9c-0.9-2.1-2.2-4-3.8-5.5c-1.6-1.5-3.5-2.7-5.8-3.6
			c-2.2-0.9-4.7-1.3-7.3-1.3h-28.2V124.4z"/>
		<path class="st0" d="M187.1,79.9v93.4h-10V79.9H187.1z"/>
		<path d="M210.9,144.1c0.2,3.3,1,6.4,2.3,9.2c1.3,2.8,3,5.2,5.1,7.2c2.1,2,4.7,3.6,7.6,4.8c2.9,1.2,6.1,1.7,9.6,1.7
			c3.1,0,6.1-0.3,8.9-1c2.8-0.7,5.3-1.8,7.5-3.3c2.2-1.5,3.9-3.4,5.2-5.8c1.3-2.4,1.9-5.3,1.9-8.7c0-2.8-0.7-5.2-2.1-7.1
			c-1.4-1.9-3.2-3.6-5.5-5c-2.3-1.4-4.9-2.6-7.8-3.6c-2.9-1-5.9-2-8.9-2.9c-3.7-1.1-7.5-2.3-11.2-3.7c-3.8-1.3-7.2-3.1-10.2-5.2
			c-3-2.1-5.5-4.7-7.3-7.9c-1.9-3.1-2.8-7-2.8-11.7c0-3.8,0.8-7.3,2.3-10.3c1.5-3,3.6-5.5,6.4-7.5c2.7-2,6-3.5,9.8-4.6
			c3.8-1,8-1.6,12.6-1.6c6.1,0,11.1,0.9,15.2,2.6c4,1.8,7.2,4,9.7,6.7c2.4,2.7,4.2,5.7,5.3,9c1.1,3.3,1.7,6.5,1.9,9.5h-10.2
			c-0.3-3.1-1-5.9-2.2-8.2c-1.2-2.4-2.8-4.3-4.7-5.9c-1.9-1.6-4.2-2.8-6.8-3.6c-2.6-0.8-5.3-1.2-8.1-1.2c-2.6,0-5.2,0.3-7.7,0.8
			c-2.5,0.5-4.8,1.4-6.8,2.6c-2,1.2-3.6,2.8-4.8,4.7c-1.2,1.9-1.8,4.2-1.8,7c0,2.9,0.7,5.3,2.1,7.2c1.4,2,3.2,3.7,5.5,5.1
			c2.3,1.5,4.9,2.7,7.9,3.7c3,1,6,2.1,9.2,3c3.8,1.2,7.5,2.4,11.2,3.7c3.7,1.3,7,3,10,5.1c3,2.1,5.4,4.6,7.2,7.7s2.7,6.8,2.7,11.4
			c0,4.6-0.8,8.6-2.5,12c-1.7,3.5-4,6.3-7,8.6c-3,2.3-6.5,4-10.7,5.2c-4.1,1.2-8.6,1.8-13.4,1.8c-4.4,0-8.7-0.7-12.8-2.2
			c-4.1-1.5-7.8-3.6-11.1-6.3c-3.2-2.7-5.9-6.1-7.9-10c-2-4-3.1-8.4-3.2-13.3H210.9z"/>
		<path d="M282.6,79.9H318c4.5,0,8.5,0.8,12,2.4c3.5,1.6,6.5,3.7,8.9,6.2c2.4,2.5,4.2,5.4,5.4,8.5c1.2,3.2,1.9,6.3,1.9,9.5
			c0,3.4-0.6,6.7-1.9,9.9c-1.2,3.2-3,6.1-5.4,8.6c-2.4,2.5-5.3,4.5-8.9,6c-3.5,1.5-7.5,2.3-12,2.3h-25.4v40h-10V79.9z M292.6,124.4
			H318c2.4,0,4.7-0.5,6.9-1.4c2.2-0.9,4.1-2.2,5.8-3.9c1.6-1.6,3-3.6,4-5.8c1-2.2,1.5-4.6,1.5-7.1c0-2.5-0.5-4.8-1.4-6.9
			c-0.9-2.1-2.2-4-3.8-5.5c-1.6-1.5-3.5-2.7-5.7-3.6c-2.2-0.9-4.6-1.3-7.2-1.3h-25.4V124.4z"/>
		<path d="M392.9,127l26.7-47.1H431l-33.4,55.9v37.5h-10v-37.5l-33.4-55.9h11.4L392.9,127z"/>
	</g>
	<g>
		<g>
			<path class="st1" d="M229.8,46.2c-8.5-0.1-32.1-0.4-48.4-0.6c-3,0-8.9-1-8.8-3c0-1.9,6-2.5,8.8-2.5c16,0.2,31.9,0.4,47.9,0.6
				c5.4,0.1-2.1-7.6-4.8-7.7l-43-0.5c-3,0-8.8-1-8.8-3c0-1.9,6-2.5,8.8-2.5c18,0.2,36.1,0.4,54.1,0.6c20.9,0.2,26-2.9,30,14.7
				c1.1,4.9,9,5.3,18.6,4.4c34.8-3.5,84.4-3.7,102.1-7.7c23.3-5.3,46.8-15,45.9,14.4C431.3,82.7,409,72.9,386,66.9
				c-17-4.4-67.1-6.7-101.8-11c-8.9-1.1-17.2-2.3-19,3.5c-4.9,15.8-9.1,13.5-29.2,13.2c-18.3-0.2-36.7-0.7-55.1-0.9
				c-3,0-8.9-1-8.8-3c0-1.9,6-2.5,8.8-2.5c14.2,0.2,29.1,0.3,43.2,0.5c3.6,0,8.9-6.9,4.6-7l-47.6-0.8c-3,0-8.9-1-8.8-3
				c0-1.9,6.1-2.5,8.8-2.5c16.2,0.2,32.4,0.5,48.6,0.6C235.2,54.1,235.3,46.2,229.8,46.2z"/>
		</g>
		<polygon class="st2" points="156.3,2.9 164.1,0.6 190.7,93 181.2,95.7 		"/>
		<polygon class="st3" points="162.9,2.9 171,1.8 184.1,97 174.3,98.4 		"/>
	</g>
</g>
</svg>
